# xmcd
#
# Track frame offsets: 
#        150
#        14803
#        29042
#        42680
#        50853
#        55455
#        71799
#        90486
#        105074
#        120718
#        133536
#        149582
#        165654
#        175440
#        190582
#        201994
#        216791
#        230897
#        242996
#        258970
#        269386
#
# Disc length: 3896 seconds
#
# Revision: 2
# Processed by: cddbd v1.5.2PL0 Copyright (c) Steve Scherf et al.
# Submitted via: ExactAudioCopy v1.1
#
DISCID=4f0f3615
DTITLE=Fler präsentiert DJ Sweap and DJ Pfund 500 - Wir Nehmen auch Euro
DYEAR=2007
DGENRE=Hip-Hop
TTITLE0=Intro
TTITLE1=Fler - Mein Sound
TTITLE2=Fler - Gangster Salutieren
TTITLE3=Harris - Auf Dich
TTITLE4=Sido - Halt dein Maul
TTITLE5=Jonesmann and Blaze - Schritt weiter
TTITLE6=Fard - 60 Terrorbars Pt.2
TTITLE7=Kitty Kat - Meine Zeit
TTITLE8=Tony D and B-Tight - Was glaubst du
TTITLE9=Griot - Wir nehmen auch Euro
TTITLE10=Megaloh - Hustler
TTITLE11=SRK - 3-6-1
TTITLE12=Olli Banjo and EKR - Burnakle Style
TTITLE13=Snaga, Pillath and Griot - Big Bizness
TTITLE14=Wicht - Bombermen
TTITLE15=Snaga and Pilltah - 40 Bars
TTITLE16=Fler and Bintia - Ein neuer Tag
TTITLE17=Godsilla and Fler - Wir Ändern uns nie
TTITLE18=Jonesmann and Blaze - Blickfang
TTITLE19=Sentino and Griot - Freestyle
TTITLE20=Tony D and Sido - Auf und Ab
EXTD=
EXTT0=
EXTT1=
EXTT2=
EXTT3=
EXTT4=
EXTT5=
EXTT6=
EXTT7=
EXTT8=
EXTT9=
EXTT10=
EXTT11=
EXTT12=
EXTT13=
EXTT14=
EXTT15=
EXTT16=
EXTT17=
EXTT18=
EXTT19=
EXTT20=
PLAYORDER=
